<svg width="90" height="11" viewBox="0 0 90 11" fill="none" xmlns="http://www.w3.org/2000/svg">
<path d="M2.74863 2.49464V8.02932H3.71301C4.67739 8.02932 5.44609 8.01534 5.92129 7.54014C6.32661 7.13482 6.67602 6.33816 6.67602 5.27595C6.67602 4.26965 6.35456 3.44503 5.82346 2.98381C5.33428 2.56452 4.66341 2.49464 3.55927 2.49464H2.74863ZM3.53132 10H0.652164V0.496H4.14628C4.99885 0.496 5.89334 0.537929 6.67602 0.92927C8.14355 1.64207 8.85635 3.3472 8.85635 5.22005C8.85635 6.85529 8.32525 8.15511 7.44473 9.00767C6.43842 10 5.29235 10 3.53132 10ZM31.9762 6.50588H30.5645V10H28.4681V0.496H32.0321C33.0943 0.496 33.7931 0.593835 34.2963 0.789505C35.4004 1.23675 36.1272 2.11727 36.1272 3.51492C36.1272 4.96847 35.3585 5.90489 34.1285 6.24033L36.4906 10H34.1006L31.9762 6.50588ZM30.5645 2.34089V4.68894H32.2277C32.7588 4.68894 33.262 4.66099 33.5974 4.43736C33.877 4.25567 34.0447 3.96216 34.0447 3.51492C34.0447 3.06767 33.877 2.77416 33.5974 2.59247C33.262 2.36885 32.7588 2.34089 32.2277 2.34089H30.5645ZM57.4964 0.496H59.6069V7.02301C59.6069 7.80569 59.523 8.58838 59.1736 9.14744C58.5866 9.97205 57.3846 10.1677 56.3923 10.1677C55.8752 10.1677 55.386 10.0839 55.1065 10.028V8.15511C55.4698 8.25294 55.8332 8.30885 56.2106 8.30885C56.6998 8.30885 57.0352 8.21101 57.2029 8.01534C57.4266 7.76376 57.4964 7.37242 57.4964 6.57576V0.496ZM85.4233 10H83.4107L82.013 4.43736C81.7894 3.55685 81.5099 2.25703 81.5099 2.25703C81.5378 2.76019 81.6357 5.61139 81.6357 6.89722V10H79.6231V0.496H82.7678L83.9977 5.20607C84.2772 6.24033 84.5008 7.51219 84.5008 7.51219H84.5148C84.5148 7.51219 84.7384 6.24033 85.0319 5.20607L86.3318 0.496H89.3507V10H87.3381V6.92518C87.3381 5.56946 87.4778 2.83007 87.5198 2.27101C87.5198 2.27101 87.2263 3.75252 86.9467 4.70292L85.4233 10Z" fill="white"/>
</svg>
